<svg xmlns="http://www.w3.org/2000/svg" xmlns:xlink="http://www.w3.org/1999/xlink"><symbol id="sprite-arrow" fill="none" viewBox="0 0 18 32"><path stroke="#102654" d="m17 0-16 16 16 16"/></symbol><use xlink:href="#sprite-arrow" width="18" height="32"/><view id="sprite-arrow-view" viewBox="0 0 18 32"/><symbol id="sprite-icon-ok" fill="none" viewBox="0 0 10 17"><path fill="#030A1A" d="M4.68 2.89c.9 0 1.63.75 1.63 1.68s-.73 1.68-1.63 1.68-1.63-.75-1.63-1.68.73-1.68 1.63-1.68m0 5.74a4 4 0 0 0 3.94-4.06 4 4 0 0 0-3.94-4.06 4 4 0 0 0-3.93 4.06 4 4 0 0 0 3.93 4.06m1.6 3.31a7 7 0 0 0 2.28-.97c.53-.35.7-1.09.36-1.64a1.13 1.13 0 0 0-1.6-.38 4.9 4.9 0 0 1-5.29 0 1.13 1.13 0 0 0-1.59.38 1.2 1.2 0 0 0 .37 1.64q1.07.69 2.28.97l-2.2 2.27a1.2 1.2 0 0 0 0 1.68 1.14 1.14 0 0 0 1.63 0l2.16-2.23 2.16 2.23c.45.47 1.18.47 1.63 0s.45-1.21 0-1.68z"/></symbol><use xlink:href="#sprite-icon-ok" width="10" height="17" y="32"/><view id="sprite-icon-ok-view" viewBox="0 32 10 17"/><symbol id="sprite-icon-rd" fill="none" viewBox="0 0 15 15"><path fill="#030A1A" d="M8.85.56c-.44 0-.86.22-1.13.55s-.42.72-.52 1.14a10 10 0 0 0-.24 2.1 7 7 0 0 0-3.33 1.02 2 2 0 0 0-1.28-.5c-.5 0-.98.23-1.33.67-.68.85-.6 2.24.18 3.06a4 4 0 0 0-.08.78c0 2.8 2.86 5.06 6.38 5.06s6.38-2.26 6.38-5.06q0-.39-.08-.78c.78-.82.86-2.21.18-3.06a1.7 1.7 0 0 0-1.33-.66 2 2 0 0 0-1.28.49 7 7 0 0 0-3.31-1.03 8 8 0 0 1 .18-1.75q.12-.46.27-.64c.1-.13.17-.18.34-.18.36 0 .4.12.63.4q.14.23.44.5c.2.17.5.32.82.32v-1.22c-.09 0-.1 0-.17-.05l-.27-.35c-.25-.32-.73-.81-1.45-.81m3.51.11c-.84 0-1.52.77-1.52 1.71 0 .95.68 1.71 1.52 1.71s1.52-.76 1.52-1.7c0-.95-.68-1.72-1.52-1.72m0 .6c.54 0 .98.5.98 1.11s-.44 1.1-.98 1.1-.98-.49-.98-1.1.44-1.1.98-1.1m-4.86 4.01c3 0 5.52 1.88 5.52 4.1s-2.53 4.08-5.52 4.08-5.52-1.87-5.52-4.09 2.53-4.09 5.52-4.09m-5.13.56q.22 0 .45.11a5 5 0 0 0-1.26 1.6c-.2-.47-.15-1.06.1-1.37a1 1 0 0 1 .7-.34m10.27 0a1 1 0 0 1 .71.34c.25.31.3.9.1 1.37a5 5 0 0 0-1.26-1.6q.23-.1.45-.11m-7.3 1.52c-.53 0-.97.5-.97 1.1s.44 1.1.98 1.1.98-.5.98-1.1-.44-1.1-.98-1.1m4.32 0c-.54 0-.98.5-.98 1.1s.44 1.1.98 1.1.98-.5.98-1.1-.44-1.1-.98-1.1m-4.85 3.75c.35.8 1.41 1.58 2.69 1.58s2.36-.78 2.7-1.58c-.62.45-1.6.76-2.7.76s-2.06-.31-2.69-.76"/></symbol><use xlink:href="#sprite-icon-rd" width="15" height="15" y="49"/><view id="sprite-icon-rd-view" viewBox="0 49 15 15"/><symbol id="sprite-icon-vk" fill="none" viewBox="0 0 13 8"><path fill="#030A1A" d="M7.72 6.05c.45-.14 1.01.95 1.62 1.36.45.32.8.25.8.25l1.6-.02s.84-.05.45-.72c-.04-.06-.24-.5-1.2-1.4-1-.95-.87-.8.34-2.43q1.1-1.48.94-1.87c-.08-.25-.63-.18-.63-.18l-1.8.01q-.29-.01-.4.24s-.3.77-.67 1.43c-.8 1.38-1.13 1.45-1.26 1.37-.31-.2-.23-.8-.23-1.24 0-1.34.2-1.9-.4-2.04a3 3 0 0 0-.84-.09c-.65 0-1.2 0-1.5.16-.2.1-.37.33-.27.34.12.02.39.07.53.27.19.26.18.83.18.83s.11 1.58-.25 1.77c-.24.14-.58-.14-1.3-1.4-.36-.64-.64-1.35-.64-1.35s-.05-.13-.15-.2a1 1 0 0 0-.28-.11h-1.72s-.26.02-.35.13 0 .31 0 .31 1.34 3.19 2.87 4.79c1.4 1.47 2.98 1.38 2.98 1.38h.72s.22-.03.33-.15c.1-.1.1-.32.1-.32s-.02-.98.43-1.12"/></symbol><use xlink:href="#sprite-icon-vk" width="13" height="8" y="64"/><view id="sprite-icon-vk-view" viewBox="0 64 13 8"/><symbol id="sprite-logo" fill="none" viewBox="0 0 410 404"><path fill="url(#a)" d="m399.64 59.53-184 329.02a10 10 0 0 1-17.41.07l-187.65-329.06a10 10 0 0 1 10.45-14.8l184.2 32.92a10 10 0 0 0 3.55 0l180.34-32.87a10 10 0 0 1 10.52 14.72"/><path fill="url(#b)" d="m292.96 1.57-136.16 26.69a5 5 0 0 0-4.03 4.6l-8.38 141.47a5 5 0 0 0 6.12 5.17l37.91-8.75a5 5 0 0 1 6.02 5.87l-11.26 55.15a5 5 0 0 0 6.35 5.79l23.42-7.11a5 5 0 0 1 6.35 5.8l-17.9 86.62c-1.12 5.42 6.09 8.38 9.1 3.73l2-3.1 110.95-221.43a5 5 0 0 0-5.41-7.15l-39.03 7.53a5 5 0 0 1-5.75-6.3l25.47-88.28a5 5 0 0 0-5.77-6.3"/><defs><linearGradient id="a" x1="6" x2="235" y1="33" y2="344" gradientUnits="userSpaceOnUse"><stop stop-color="#41D1FF"/><stop offset="1" stop-color="#BD34FE"/></linearGradient><linearGradient id="b" x1="194.651" x2="236.076" y1="8.818" y2="292.989" gradientUnits="userSpaceOnUse"><stop stop-color="#FFEA83"/><stop offset=".083" stop-color="#FFDD35"/><stop offset="1" stop-color="#FFA800"/></linearGradient></defs></symbol><use xlink:href="#sprite-logo" width="410" height="404" y="72"/><view id="sprite-logo-view" viewBox="0 72 410 404"/><symbol id="sprite-minus" fill="none" viewBox="0 0 14 2"><path stroke="#fff" d="M14 1h-14"/></symbol><use xlink:href="#sprite-minus" width="14" height="2" y="476"/><view id="sprite-minus-view" viewBox="0 476 14 2"/><symbol id="sprite-plus" fill="none" viewBox="0 0 14 14"><path stroke="#1C3374" d="M7 0v7m0 7v-7m0 0h7m-7 0h-7"/></symbol><use xlink:href="#sprite-plus" width="14" height="14" y="478"/><view id="sprite-plus-view" viewBox="0 478 14 14"/><symbol id="sprite-ruble-icon" fill="none" viewBox="0 0 14 20"><path fill="#102654" fill-rule="evenodd" d="M1.87 13.49v-5.4h2.8v5.4h5.13v2.85h-5.13v3.66h-2.8v-3.66h-1.87v-2.85z" clip-rule="evenodd"/><path fill="#102654" fill-rule="evenodd" d="M8.63 2.86h-3.96v5.24h3.96a2.6 2.6 0 0 0 2.57-2.62 2.6 2.6 0 0 0-2.57-2.62m-6.76-2.86v10.95h6.76a5.4 5.4 0 0 0 5.37-5.47c0-3.03-2.4-5.48-5.37-5.48z" clip-rule="evenodd"/><path fill="#102654" d="M1.87 8.1h-1.87v2.85h1.87z"/></symbol><use xlink:href="#sprite-ruble-icon" width="14" height="20" y="492"/><view id="sprite-ruble-icon-view" viewBox="0 492 14 20"/><symbol id="sprite-user" fill="none" viewBox="0 0 18 20"><path stroke="#163152" stroke-linecap="square" stroke-linejoin="round" d="M15.67 19h-13.34c-.73 0-1.33-.55-1.33-1.23a4.9 4.9 0 0 1 3.43-4.58l.41-.14a12.8 12.8 0 0 1 8.32 0l.4.14a4.9 4.9 0 0 1 3.44 4.58c0 .68-.6 1.23-1.33 1.23Zm-8.7-9.6a4.8 4.8 0 0 0 4.06 0 4.2 4.2 0 0 0 2.32-2.8l.08-.31a4.1 4.1 0 0 0-.84-3.54l-.12-.14c-.82-1.01-2.1-1.61-3.47-1.61s-2.65.6-3.47 1.6l-.12.15a4.1 4.1 0 0 0-.84 3.54l.08.32a4.2 4.2 0 0 0 2.32 2.8Z"/></symbol><use xlink:href="#sprite-user" width="18" height="20" y="512"/><view id="sprite-user-view" viewBox="0 512 18 20"/></svg>